<?xml version="1.0" encoding="utf-8"?>

<!DOCTYPE svg PUBLIC "-//W3C//DTD SVG 1.1//EN" "http://www.w3.org/Graphics/SVG/1.1/DTD/svg11.dtd">
<svg version="1.1" id="Layer_1" xmlns="http://www.w3.org/2000/svg" xmlns:xlink="http://www.w3.org/1999/xlink" x="0px" y="0px"
	 viewBox="0 0 1353.827 1711.24" enable-background="new 0 0 1353.827 1711.24" xml:space="preserve">
<g>
	<path d="M623.826,77.326c2.974-7.375,5.489-15.038,9.916-21.706c6.89,8.109,9.13,18.903,13.178,28.518
		c7.205,16.82,12.864,34.242,19.675,51.219c5.423,14.947,11.344,29.762,15.484,45.141c0.982,3.602,1.009,7.375,0.419,11.043
		c-2.096-0.393-4.388-0.445-6.078-1.886c-7.611-5.515-13.624-12.824-19.793-19.82c-0.367,0.589-1.127,1.782-1.493,2.384
		c-0.249,10.074,1.284,20.108,1.677,30.181c7.126,103.028,15.274,206.003,21.85,309.096c-8.685,9.654-19.06,17.933-31.334,22.531
		c-3.969-57.232-7.336-114.503-11.894-171.695c-0.681-14.03-2.174-27.994-2.738-42.023c-0.603-14.436-2.685-28.78-2.843-43.241
		c-2.712-38.368-5.358-76.75-6.969-115.184c0.013-14.842-0.865-29.972-5.947-44.054c-1.271-3.943-3.642-7.938-2.384-12.183
		C616.66,95.914,620.119,86.548,623.826,77.326z"/>
	<path d="M715.182,137.623c6.366-2.751,14.108,3,13.021,9.916c-0.563,7.244-10.296,11.252-15.615,6.117
		C707.126,149.439,708.711,139.915,715.182,137.623z"/>
	<path d="M548.753,166.992c3.995,1.179,6.759,4.415,9.877,6.969c16.924,14.226,27.732,35.303,30.024,57.232
		c1.899,15.209,1.14,31.282-5.724,45.246c-0.969,1.506-1.952,3.93-4.179,3.078c-0.917-2.371-0.157-4.899,0.17-7.296
		c2.934-16.099,1.349-33.417-6.432-47.983c-7.283-13.872-17.894-25.649-29.343-36.207c-1.14-1.546-3.864-2.987-2.751-5.253
		C542.543,177.21,546.015,172.271,548.753,166.992z"/>
	<path d="M771.51,220.91c-0.668-5.947,1.991-11.829,6.131-15.981c1.205,5.646,1.559,11.554,3.995,16.872
		c3.524,9.301,8.816,18.811,6.72,29.107c-1.52,7.689-4.205,16.807-12.065,20.186c-9.405,1.952-16.479-6.484-18.628-14.711
		c-2.148,6.131-4.69,12.759-10.296,16.571c-5.423,3.982-14.331,3.694-18.326-2.201c-7.912-9.995-3.471-23.422-5.462-34.989
		c-1.533-1.022-3.602-1.52-4.572-3.17c-1.48-7.414,3.891-14.37,10.231-17.58c3.877,1.205,2.725,6.445,3.157,9.615
		c0.747,7.912-2.921,15.719-0.76,23.553c1.022,4.126,2.738,8.737,6.864,10.689c6.733,0.707,12.929-4.611,15.195-10.676
		c2.646-9.667-2.188-19.125-3.301-28.649c-0.38-4.624,2.568-8.58,4.925-12.274c3.864,6.615,4.873,14.331,6.563,21.68
		c1.546,7.676-0.131,16.767,5.515,23.042c4.139,3.969,14.383,4.153,14.999-2.974C777.981,240.022,772.322,231.166,771.51,220.91z"/>
	<path d="M811.594,258.466c1.061-3.209,3.17-5.882,5.397-8.371c1.978,1.716,4.061,3.393,5.724,5.462
		c15.13,20.933,29.867,42.194,43.202,64.332c2.306,3.851,3.799,8.122,4.637,12.523c-3.157,2.476-7.047,0.812-10.309-0.458
		c-5.056-2.096-9.366-5.62-14.396-7.729c-3.76,0.589-1.533,4.297-1.166,6.694c14.449,48.848,35.893,96.085,41.853,147.107
		c1.52,24.339-0.498,49.385-9.759,72.165c-6.065,17.134-18.405,32.657-35.709,39.325c-14.2,5.567-29.985,4.69-44.669,1.677
		c-23.121-5.921-42.207-22.767-53.669-43.359c-9.89-17.514-16.466-36.692-21.732-56.04c-0.55-1.86-1.31-3.629-2.292-5.292
		c-3.733,23.343-9.903,46.739-22.047,67.227c-11.449,19.348-27.797,36.521-48.678,45.573c-21.667,9.405-47.106,9.759-69.047,1.061
		c-16.414-6.982-28.937-21.025-36.652-36.836c-5.829-12.759-10.388-26.238-12.13-40.189c-4.611-33.089-1.69-66.768,3.982-99.543
		c1.899-11.96,5.855-23.448,8.266-35.29c0.629-2.423,0.367-4.912,0.052-7.336c-4.087,2.044-6.379,6.131-8.908,9.733
		c-6.419,9.222-10.126,19.951-13.624,30.535c-10.82,33.456-16.728,68.209-25.885,102.111c-5.279,20.789-9.943,43.071-24.679,59.55
		c-5.567,5.79-12.012,12.314-20.501,12.824c-14.671,0.157-28.491-7.991-37.229-19.492c-14.252-18.234-20.501-41.237-24.601-63.637
		c-5.724-37.373-3.484-75.872,6.17-112.407c2.07-7.899,3.393-16.414,8.777-22.885c3.288,5.292,0.956,11.711,0.393,17.449
		c-4.362,22.033-6.589,44.46-6.235,66.925c0.838,20.894,2.017,42.167,8.908,62.092c3.982,10.912,10.401,22.151,21.509,27.024
		c9.026,3.275,20.37,2.934,27.666-3.969c10.873-9.851,15.968-24.103,20.317-37.713c2.292-8.764,4.677-17.514,7.087-26.238
		c6.117-27.823,12.916-55.529,20.907-82.881c5.109-18.759,12.824-36.744,22.309-53.695c6.275-9.982,12.431-20.265,20.998-28.465
		c4.022-3.288,8.895-7.074,14.423-6.091c4.742,1.677,6.183,7.179,7.034,11.593c1.074,8.934,0.223,17.959-1.153,26.802
		c-3.982,32.094-11.383,63.651-15.51,95.718c-3.668,24.247-2.292,50.25,9.078,72.388c5.371,9.536,12.615,18.745,22.754,23.474
		c7.689,3.864,16.348,5.816,24.955,5.738c23.474,0.576,48.507-4.768,66.624-20.553c20.016-16.348,30.731-42.351,31.111-67.882
		c1.035-43.949-5.711-88.16-20.527-129.593c-0.93-3.026-2.384-6.052-2.109-9.288c1.284-18.562,7.139-36.404,13.781-53.656
		c0.865-2.554,2.423-4.755,4.008-6.903c9.157,12.052,13.375,26.919,18.287,41.028c9.523,32.932,15.287,66.821,19.636,100.801
		c4.69,29.684,10.191,59.734,22.649,87.295c6.615,15.326,17.527,29.448,32.893,36.731c13.702,6.799,29.5,7.82,44.473,5.882
		c9.353-1.585,18.824-5.554,24.876-13.126c3.524-4.284,7.834-9.536,5.423-15.444c-6.104-19.558-17.37-36.941-25.492-55.66
		c-5.227-12.431-11.108-24.64-14.789-37.648c-9.471-29.526-16.322-59.917-19.937-90.714c-0.93-8.502-4.375-16.532-9.248-23.501
		C802.962,283.014,807.284,270.74,811.594,258.466z"/>
	<path d="M460.344,262.317c4.375-5.331,12.314-4.061,17.776-1.244c12.104,6.786,24.234,15.811,29.199,29.304
		c1.14,6.419-1.533,12.772-4.559,18.287c-1.323,1.782-2.672,4.755-5.318,4.401c-6.589-0.904-13.165-1.952-19.741-3.026
		c-5.698,9.956-12.759,19.531-22.584,25.754c-6.222,4.847-14.161,6.93-20.173,12.065c0.157,0.629,0.472,1.899,0.629,2.541
		c9.995,3.314,20.723,2.122,30.993,1.074c13.375-1.507,26.107-6.235,39.39-8.148c-6.786,5.908-14.331,11.174-22.832,14.292
		c-12.969,5.227-26.841,8.986-40.923,8.371c-4.585-0.131-9.877-1.834-12.156-6.091c-2.62-8.921,1.703-18.772,9.012-24.156
		c11.318-8.371,24.234-15.235,32.513-27.011c-6.602-1.31-14.868-3.615-17.147-10.794c-1.572-7.113,2.135-13.912,4.1-20.514
		C457.606,272.404,456.506,266.457,460.344,262.317 M459.597,290.311c4.244,4.86,11.017,5.41,16.99,6.262
		c0.052-6.183,0.393-13.728-5.371-17.671C466.134,281.207,462.021,285.281,459.597,290.311 M484.041,282.412
		c0.013,5.214-0.406,10.427-1.637,15.497c6.091,0.812,12.156,2.07,18.339,2.07C497.913,292.092,491.573,285.87,484.041,282.412z"/>
	<path d="M955.44,404.761c2.489-5.685,6.366-13.008,13.584-12.759c3.642,1.349,6.497,4.349,8.305,7.716
		c2.79,4.873,0.668,11.135-2.987,14.96c-2.672-2.541-4.794-6.131-8.462-7.283c-2.777-0.865-4.284,2.148-5.41,4.113
		c-6.93,13.833-6.078,30.09-12.536,44.08c8.764,3.249,16.911,9.104,21.771,17.187c1.192,5.096-2.607,9.746-4.624,14.187
		c-10.126,3.249-21.64,4.27-29.828,11.672c7.978,24.326,12.471,50.184,10.27,75.807c-0.904,4.113-0.406,8.986-3.262,12.392
		c-0.76-7.506-0.406-15.077-1.114-22.583c-1.113-17.815-5.214-35.225-8.659-52.66c-2.161-8.619-2.79-18.457,2.41-26.16
		c3.314-6.039,10.571-7.427,16.453-9.772c-2.554-1.546-5.096-4.388-8.371-3.471c-3.144,2.45-5.397,5.803-8.318,8.488
		c0.026-8.751,1.48-18.968,9.17-24.418c-3.668-12.523-7.414-25.57-15.208-36.207c-2.659,2.175-6.628,3.694-9.523,1.009
		c-2.987-2.659-8.266-5.62-6.995-10.257c2.017-4.048,4.205-8.148,7.257-11.501c4.65-1.336,9.497,1.703,12.759,4.886
		c8.973,9.772,12.209,23.134,14.606,35.827C949.401,428.209,951.628,416.263,955.44,404.761z"/>
	<path d="M425.08,460.46c-0.616-22.413,6.812-44.656,19.112-63.231c-3.301,15.104-9.654,29.526-11.423,44.997
		c-0.472,5.423-0.223,11.239,2.502,16.099c1.598,2.829,5.646,4.126,8.449,2.319c4.768-3.38,6.943-9.026,10.453-13.506
		c-1.035,8.449-2.856,17.108-7.323,24.47c-2.79,4.69-8.999,8.174-14.252,5.292C426.574,473.966,425.512,466.434,425.08,460.46z"/>
	<path d="M783.561,460.526c-0.668-22.387,6.681-44.735,19.112-63.205c-3.327,14.554-9.248,28.504-11.266,43.386
		c-0.629,5.672-0.642,11.763,1.939,17.003c1.48,2.987,5.279,4.729,8.41,3.223c5.043-3.275,7.27-9.117,10.702-13.794
		c-0.616,8.423-2.79,16.925-7.021,24.273c-2.685,4.742-8.829,8.266-14.121,5.646C785.107,474.267,783.889,466.578,783.561,460.526z"
		/>
	<path d="M581.226,437.038c0.76-1.926,2.148-3.484,3.498-5.004c5.96,9.432,8.777,20.33,13.152,30.496
		c7.061,17.553,13.204,35.447,20.082,53.079c2.921,7.716,5.397,15.628,6.917,23.749c-2.921,0.223-5.829,0.419-8.724,0.576
		c-4.886-4.375-8.96-9.589-14.147-13.623c-0.38,4.493-0.131,9.012,0.38,13.506c-10.008-1.258-20.226-5.174-26.919-13.008
		c-0.956-12.942,0.131-26.147-3.576-38.775c-0.904-4.506-3.825-8.502-4.1-13.099C570.472,461.757,575.882,449.326,581.226,437.038z"
		/>
	<path d="M1047.831,475.367c1.755-3.917,2.987-8.2,6.117-11.292c6.275,9.602,8.947,20.92,13.545,31.308
		c7.44,18.903,14.226,38.041,21.47,57.009c2.214,7.192,5.161,14.449,5.214,22.086c-0.603,3.615-4.336,1.087-5.973-0.144
		c-6.039-4.794-10.859-10.912-16.623-16.008c-1.323,10.571,0.93,21.182,1.349,31.766c4.663,68.55,9.916,137.086,14.331,205.662
		c0.943,22.282,3.183,44.643,1.31,66.952c-1.467,18.365-5.423,36.534-11.528,53.918c-5.528,15.562-12.602,30.692-22.597,43.923
		c4.179-16.964,6.995-34.465,6.445-51.966c0.747-4.965,3.183-9.523,3.642-14.554c1.31-11.344,0.354-22.78-0.275-34.124
		c-3.052-51.062-6.419-102.124-10.362-153.133c-3.471-53.708-8.056-107.377-9.746-161.189c0.105-11.475-1.336-23.16-5.869-33.784
		c-1.14-2.463-1.441-5.227-0.642-7.833C1040.246,494.165,1043.718,484.616,1047.831,475.367z"/>
	<path d="M321.371,475.878c7.034-1.402,14.357-1.349,21.444-0.262c4.035,0.629,8.043,2.502,10.48,5.882
		c2.921,6.576-1.48,13.204-5.043,18.536c-8.803,11.2-19.427,20.776-29.107,31.177c-3.288,3.576-6.196,8.659-4.375,13.61
		c3.157,4.808,9.589,5.738,14.881,6.288c12.287,0.694,24.588-1.127,36.6-3.589c6.065-1.244,11.881-3.629,18.077-4.297
		c-11.973,14.501-30.876,21.732-49.254,23.003c-8.764,0.616-19.086-0.013-25.007-7.48c-4.297-4.087-3.275-10.414-3.013-15.719
		c1.493-11.567,9.301-20.959,17.304-28.898c5.659-6.17,11.829-11.907,17.042-18.457c0.105-1.939-1.913-2.253-3.314-2.79
		c-4.86-1.559-9.943-2.292-15.012-2.646c-5.489-0.393-10.611,1.965-15.798,3.393C309.372,486.292,313.223,477.843,321.371,475.878z"
		/>
	<path d="M998.433,528.119c4.401-3.419,10.375-3.969,15.693-2.908c5.096,1.1,8.056,6.327,8.646,11.174
		c1.559,11.043-2.974,21.758-8.397,31.111c-6.602,10.938-15.248,20.619-25.361,28.426c-3.747,2.83-7.401,6.039-12.038,7.283
		c10.702-14.043,24.496-26.029,32.212-42.22c1.755-3.681,1.664-8.357-0.681-11.763c-1.912-2.423-5.266-2.882-8.135-2.79
		c-4.65,0.105-8.253,3.367-12.209,5.332C988.7,543.144,991.018,533.424,998.433,528.119z"/>
	<path d="M651.531,606.271c10.545-4.48,19.964-11.161,28.413-18.85c-2.227,31.046-7.925,62.039-19.335,91.107
		c-3.157,7.545-5.607,15.877-11.475,21.837c-2.751-6.799-0.681-14.187-0.38-21.221C651.715,654.988,652.042,630.584,651.531,606.271
		z"/>
	<path d="M270.375,604.319c15.313-8.161,32.945-10.283,50.066-9.916c34.989,0.904,69.978,2.489,104.862,5.41
		c6.314,0.092,12.052,3.157,18.339,3.55c6.576,1.127,12.995-1.952,19.584-0.825c15.654,1.873,31.452,2.109,47.093,4.087
		c17.514,1.795,35.12,2.895,52.529,5.594c3.851,0.249,6.982,4.244,5.345,8.017c-3.209,10.598-7.008,21.012-10.506,31.517
		c-1.297,4.454-4.729,8.056-9.026,9.72c-63.153,26.487-125.572,55.149-184.572,90.033c-0.223,7.925-0.079,16.021-2.214,23.723
		c-0.458,2.332-2.856,4.65-5.148,2.803c-4.847-4.231-7.427-10.296-10.925-15.562c-16.898,14.855-32.958,30.876-45.979,49.293
		c-16.636,22.819-30.928,48.062-37.229,75.82c-4.519,18.824-3.615,38.447-1.218,57.507c21.064-16.361,42.285-32.696,65.511-45.927
		c12.222-7.427,25.295-13.257,38.185-19.374c11.279-4.284,22.675-8.96,34.884-9.523c-4.703-12.576-8.593-25.662-10.178-39.023
		c1.572-37.176,15.366-74.562,41.512-101.495c7.729-6.825,17.069-14.593,28.112-12.955c6.366,2.594,10.021,8.816,13.558,14.357
		c13.99,23.042,26.487,47.577,46.163,66.48c8.528,7.768,17.291,15.484,27.548,20.92c9.301,5.567,19.846,9.17,27.954,16.584
		c16.82,13.872,25.059,36.194,24.627,57.651c0.629,21.457-2.712,43.084-10.021,63.284c-7.388,21.667-20.016,41.093-33.993,59.053
		c-25.636,29.657-56.786,55.516-93.399,70.279c-28.478,11.868-59.865,16.23-90.544,13.885
		c13.519-16.112,24.994-34.032,40.294-48.586c15.457-2.175,30.849-5.318,45.612-10.493c21.889-7.624,42.285-18.929,61.502-31.779
		c19.938-13.689,37.438-30.784,52.123-49.962c9.628-13.637,17.37-30.339,14.449-47.42c-0.851-15.431-10.322-30.548-24.679-36.757
		c-22.898-8.803-44.172-22.02-61.856-39.076c-15.156-14.907-25.898-33.574-35.487-52.385c-3.707-6.524-7.165-14.409-14.318-17.737
		c-6.641-0.314-12.025,4.755-16.82,8.737c-10.545,11.462-22.02,23.396-25.924,38.958c-2.712,10.414,1.939,21.051,8.659,28.871
		c6.366,9.733,15.588,17.121,25.334,23.239c11.868,8.03,24.483,15.169,38.172,19.61c4.454,1.651,10.165,3.353,11.685,8.475
		c1.48,6.51-0.838,13.047-1.808,19.466c-1.637,7.375-2.044,15.091-4.794,22.191c-8.069-1.454-14.593-6.877-22.322-9.327
		c-22.623-8.266-47.486-10.702-71.274-6.943c-24.496,4.873-47.198,16.073-68.275,29.186c-17.553,11.069-34.033,23.723-49.948,37.032
		c7.021,16.571,18.051,31.57,32.736,42.128c10.964,7.991,23.396,13.885,36.404,17.737c-11.894,9.785-25.361,19.361-41.198,20.619
		c-5.449-0.052-11.855-0.288-15.811-4.572c-8.515-8.881-15.418-19.191-21.169-30.05c-4.886-9.288-7.768-19.413-11.004-29.356
		c-11.711,9.563-23.37,19.204-35.067,28.806c-12.562,10.846-26.775,20.252-42.757,25.151c-14.226,4.441-30.666,3.275-43.189-5.187
		c-17.029-11.279-28.806-29.762-32.644-49.752c-2.541-8.908-2.502-18.182-2.004-27.352c4.284-39.246,19.78-76.161,37.727-110.966
		c2.253-3.223,1.244-7.192,1.244-10.82c-0.327-27.784,9.733-54.612,24.103-78.008c-4.349,18.667-11.96,36.626-14.409,55.751
		c-0.432,7.545-0.917,15.602,2.659,22.531c2.057,3.943,7.323,5.816,11.357,3.877c6.327-4.205,9.366-11.41,13.427-17.514
		c-1.127,9.812-3.498,19.649-7.951,28.518c-2.856,5.646-8.344,11.004-15.169,10.349c-5.122-0.079-8.567-4.205-11.659-7.716
		c-8.004,26.998-20.383,52.647-26.16,80.313c-3.432,14.409-5.096,29.749-1.271,44.25c3.419,11.934,12.418,23.409,25.243,25.623
		c17.475,2.83,35.683-1.729,50.8-10.676c10.755-5.869,19.269-14.803,28.622-22.544c10.322-8.908,20.658-17.789,30.941-26.736
		c-1.244-29.369,0.393-59.013,6.786-87.767c6.524-28.098,16.807-55.948,34.478-79.029c11.881-17.029,25.845-32.474,39.718-47.892
		c-15.3-15.536-32.998-28.36-50.027-41.892c-9.903-7.349-19.034-15.785-26.946-25.269c-6.379-7.781-9.379-17.999-8.685-27.994
		C240.901,630.086,253.542,612.572,270.375,604.319 M343.981,639.321c-22.688,0.275-45.455-0.93-68.039,1.729
		c-4.349,0.563-8.816,1.244-12.693,3.445c-0.681,2.594,2.188,4.126,3.668,5.803c26.382,21.182,53.603,41.408,78.859,63.978
		c2.947,2.463,5.528,5.345,7.886,8.397c27.836-18.483,56.21-36.377,86.313-50.996c14.488-7.585,29.906-13.165,44.656-20.16
		c-2.463-1.834-5.541-2.292-8.475-2.803C432.377,642.504,388.166,640.002,343.981,639.321z"/>
	<path d="M580.034,609.113c8.934,2.882,18.221,4.532,27.574,5.279c4.231,61.79,9.248,123.542,12.222,185.411
		c1.585,29.395-2.908,58.987-12.602,86.771c-1.428-10.414-3.209-20.933-7.506-30.6c-1.245-2.961-3.262-5.659-3.733-8.881
		C591.785,767.696,585.51,688.431,580.034,609.113z"/>
	<path d="M716.963,623.968c17.383-11.921,39.128-14.894,59.773-14.265c27.365,0.93,54.717,2.161,82.055,3.864
		c17.553,1.454,35.133,2.79,52.726,3.864c14.711,1.637,29.487,2.476,44.237,3.655c17.894,2.148,35.906,3.105,53.773,5.515
		c4.048,0.76,9.274,0.144,11.986,3.969c1.716,2.358,0.223,5.279-0.419,7.755c-3.393,9.785-6.497,19.662-9.903,29.448
		c-1.415,4.31-4.925,7.663-9.143,9.248c-27.496,11.475-54.835,23.33-81.702,36.207c-20.894,9.274-40.936,20.252-61.371,30.443
		c-13.912,7.401-27.522,15.313-41.146,23.199c-1.087,9.314,1.402,20.304-5.017,28.085c-6.288-3.93-9.484-10.886-12.995-17.082
		c-32.199,26.854-58.476,60.978-75.335,99.412c-7.585,18.575-12.038,38.604-11.305,58.738c0.878,24.025,4.205,48.625,15.222,70.305
		c5.554,12.34,14.711,22.675,24.64,31.675c19.767,17.645,46.438,25.007,72.296,27.378c-14.396,15.392-30.574,31.085-51.717,36.181
		c-14.698-7.218-28.609-16.636-39.141-29.304c-15.693-18.811-26.461-41.63-31.295-65.615c-3.93-21.968-5.463-44.407-3.878-66.676
		c0.38-19.4,3.275-38.683,7.65-57.546c5.436-22.243,13.44-44.041,25.596-63.52c13.807-21.418,30.797-40.517,47.695-59.524
		c-5.345-4.284-9.916-9.419-15.195-13.754c-11.501-9.536-23.278-18.732-35.054-27.915c-10.362-7.807-20.095-16.61-28.085-26.867
		c-6.445-8.423-8.371-19.479-7.205-29.841C695.886,646.054,704.886,632.509,716.963,623.968 M733.783,656.01
		c-6.104,0.642-12.536,1.061-17.737,4.677c4.794,5.921,11.213,10.126,17.082,14.907c12.851,10.165,25.819,20.199,38.552,30.522
		c12.261,10.322,25.334,19.951,35.958,32.055c38.146-26.291,78.545-49.582,121.537-67.056c3.157-1.467,6.903-2.279,9.143-5.187
		c-11.868-3.013-24.129-3.655-36.207-5.24c-36.535-4.218-73.318-5.345-110.049-6.196
		C772.636,654.595,753.157,654.176,733.783,656.01z"/>
	<path d="M352.47,664.446c5.96-4.388,15.248,0.825,14.711,8.174c0.144,6.851-8.135,11.528-14.017,8.148
		C346.955,677.742,346.509,667.97,352.47,664.446z"/>
	<path d="M811.005,677.244c6.576-4.297,15.877,2.463,14.095,10.021c-1.035,6.851-10.126,10.087-15.34,5.646
		C804.56,689.047,805.293,680.27,811.005,677.244z"/>
	<path d="M1119.38,681.514c0.943-3.877,5.764-3.629,7.362-0.354c20.396,29.029,40.451,58.319,60.742,87.426
		c3.511,5.633,8.685,11.03,8.489,18.104c-12.025,0.328-19.689-10.571-30.011-14.881c1.127,6.563,4.257,12.549,6.17,18.903
		c9.314,28.465,19.047,56.786,28.138,85.317c19.846,60.258,39.927,120.725,51.416,183.249c4.637,27.863,8.502,56.262,5.345,84.518
		c-3.668,51.271-22.61,101.207-52.948,142.614c-15.759,21.496-34.412,40.831-55.254,57.428
		c-17.082,14.161-36.639,25.518-57.729,32.513c-27.417,9.156-56.708,7.493-85.173,7.257c-11.999,0.131-23.946-1.022-35.866-2.135
		c-3.917-0.668-8.096-0.825-11.619-2.816c0.262-3.262,4.27-3.668,6.694-4.768c39.862-11.135,79.658-22.557,119.376-34.216
		c21.588-7.388,42.626-16.964,61.096-30.496c17.265-12.117,32.199-27.182,45.757-43.268c18.418-23.029,31.688-50.224,37.779-79.108
		c3.026-15.248,2.947-30.902,2.541-46.359c-1.808-26.985-7.139-53.603-14.187-79.671c-13.872-54.337-34.19-106.709-50.97-160.155
		c-15.405-47.211-30.758-94.434-46.805-141.422c-3.039-9.026-8.488-16.938-12.431-25.531c-2.188-3.969,0.197-8.213,1.048-12.196
		C1112.162,708.198,1115.097,694.64,1119.38,681.514z"/>
	<path d="M988.123,726.485c2.319-5.332,5.554-10.191,8.24-15.339c23.369,14.056,38.342,40.556,40.176,67.633
		c1.48,15.602,0.406,32.762-8.803,46.019c-1.651-1.48-2.214-3.275-1.703-5.358c2.947-15.798,2.568-32.801-4.336-47.577
		c-7.126-15.13-18.379-27.889-30.587-39.141C989.486,730.991,986.787,729.197,988.123,726.485z"/>
	<path d="M202.716,718.822c6.052-4.166,13.597-5.017,20.763-5.083c17.042,0.026,34.294-0.825,51.062,2.921
		c4.546,1.1,9.785,2.266,12.654,6.327c2.017,2.581,0.144,5.764-0.956,8.318c-5.004,9.851-11.855,18.614-18.628,27.299
		c-7.82,9.301-16.505,18.968-28.465,22.741c-17.278,5.908-34.845,11.148-52.686,15.038c8.161-8.436,19.191-13.008,29.199-18.772
		c13.623-7.755,28.334-13.899,40.595-23.828c-2.319-1.808-4.899-3.314-7.834-3.786c-21.208-3.498-42.731-1.205-64.083-1.755
		c1.664-6.209,5.685-11.331,8.764-16.872C195.865,726.904,198.131,721.756,202.716,718.822z"/>
	<path d="M643.004,733.572c0.773-2.07,2.122-3.825,3.471-5.554c4.336,6.196,6.484,13.532,9.51,20.396
		c9.746,25.387,19.649,50.721,28.36,76.475c1.559,5.201,3.498,10.663,1.86,16.112c-9.903-2.568-13.702-13.388-22.033-18.13
		c-0.694,16.82,2.306,33.574,2.685,50.394c2.79,30.496,4.008,61.109,6.917,91.592c2.371,40.189,6.026,80.313,7.257,120.555
		c-0.982,37.727-6.51,76.252-23.671,110.298c-0.917,1.245-1.978,2.371-3.183,3.367c-1.336-7.218-0.341-14.541,0.472-21.745
		c2.607-26.225,2.436-52.621,0.76-78.898c-1.926-25.649-2.947-51.35-4.978-76.986c-4.349-68.209-10.1-136.34-13.309-204.614
		c0.458-14.108-1.153-28.452-6.406-41.643c-1.389-3.091-0.511-6.484,0.275-9.589C634.214,754.636,638.903,744.209,643.004,733.572z"
		/>
	<path d="M533.348,737.79c5.987-4.375,15.287,0.904,14.685,8.253c0.157,7.231-9.143,11.842-14.894,7.519
		C527.636,750.103,527.741,741.091,533.348,737.79z"/>
	<path d="M941.961,780.678c1.873-2.515,4.677-3.982,7.388-5.436c1.755,1.506,3.982,2.816,4.742,5.187
		c2.554,6.864,4.716,13.977,8.777,20.16c11.619,18.156,30.076,30.614,49.293,39.6c14.685,6.72,27.05,18.601,33.626,33.417
		c6.589,13.663,7.65,29.094,7.467,44.028c-1.192,22.086-5.554,44.106-14.423,64.45c-10.768,23.92-25.95,45.901-44.604,64.345
		c-18.758,19.348-40.608,35.762-64.567,48.088c-24.522,12.038-51.442,19.649-78.82,20.33c15.942-17.056,31.282-34.701,47.931-51.088
		c2.712-2.528,5.083-5.724,8.711-7.008c19.047-6.235,37.072-15.339,54.049-25.963c24.313-14.488,45.351-34.111,62.629-56.459
		c9.183-12.969,16.872-28.505,15.091-44.826c-0.393-13.322-6.104-26.933-16.911-35.081c-5.738-4.598-13.113-6.183-19.44-9.733
		c-0.563,14.265-0.563,29.055-6.34,42.39c-1.454,3.183-3,7.034-6.641,8.2c-5.738-0.996-10.755-4.192-15.746-7.021
		c-16.505-9.628-31.177-23.527-38.499-41.46c-5.462-14.763-6.628-30.6-8.908-46.032c-0.472-0.052-1.389-0.131-1.86-0.183
		c-6.275,5.711-10.925,12.942-16.427,19.361c-6.065,6.93-10.899,15.182-18.706,20.37c-15.274,11.226-35.408,16.807-54.101,12.431
		c-1.074,30.731-0.432,62.131-9.641,91.828c-3.825,10.139-8.672,20.199-16.388,27.967c-11.108,10.702-22.793,20.763-34.766,30.483
		c-11.266-6.864-20.684-16.217-29.644-25.793c15.706-9.589,30.339-20.763,44.8-32.094c11.121-9.89,23.854-19.047,31.033-32.395
		c0.341-24.745-5.869-49.372-15.746-71.982c-3.471-8.095-7.951-15.746-10.768-24.103c-2.292-7.257,1.493-14.449,3.013-21.47
		c2.816-8.253,4.166-17.226,9.065-24.614c9.117,8.043,9.248,22.859,20.068,29.474c8.109,6.052,18.732,5.594,28.334,5.187
		c26.5-1.31,50.996-16.885,66.087-38.303C928.075,798.192,934.965,789.402,941.961,780.678z"/>
	<path d="M752.162,875.295c1.912-3.55,2.974-7.951,6.694-10.113c11.449,6.262,22.295,13.571,32.696,21.444
		c2.45,1.86,5.083,3.668,6.825,6.288c0.144,4.899-1.965,9.523-4.061,13.859c-4.467,8.266-8.462,16.859-14.279,24.313
		c-13.741-9.104-26.893-19.112-40.923-27.81C742.442,893.517,747.944,884.675,752.162,875.295z"/>
	<path d="M542.858,916.179c11.266-4.349,22.06-10.139,31.334-17.933c4.703,11.541,5.541,25.138,0.642,36.77
		c-1.467,3.537-2.895,7.349-6.013,9.798c-6.353,5.201-13.401,9.576-20.907,12.903c-22.505,9.681-44.944,19.544-67.096,30.011
		c-19.243,9.523-38.788,19.453-54.049,34.91c-19.636,17.933-37.36,37.805-54.861,57.782c-10.951,12.68-22.95,24.981-37.975,32.775
		c-12.851,5.777-28.151,8.423-41.539,2.869c-11.056-4.022-20.095-12.156-27.221-21.339c-10.702-12.877-15.536-29.592-17.016-46.032
		c-0.223-9.274,0.432-18.562,1.611-27.745c2.397,5.816,4.808,11.672,8.004,17.121c3.367,5.03,2.371,11.396,4.205,16.964
		c3.393,11.161,11.357,21.968,23.121,25.007c13.519,2.96,27.719,0.052,40.045-5.869c12.693-6.694,24.26-15.562,33.941-26.16
		c11.986-14.213,23.854-28.518,35.866-42.691c11.043-11.711,22.649-23.029,35.88-32.264
		C464.837,948.129,504.634,933.221,542.858,916.179z"/>
	<path d="M909.775,903.656c1.415,5.214,1.533,10.755,3.825,15.732c3.249,8.62,8.384,17.619,5.541,27.103
		c-1.703,6.183-3.864,13.964-10.545,16.296c-8.554,2.057-14.396-6.222-16.794-13.244c-1.375,5.908-4.035,11.986-9.301,15.405
		c-5.07,2.777-12.654,2.947-16.152-2.371c-6.393-8.934-3.642-20.448-4.336-30.666c-1.611-1.205-3.223-2.397-4.821-3.576
		c-0.118-6.904,4.113-14.095,11.161-15.602c3.917,10.886-2.698,22.335,1.454,33.142c1.1,3.629,4.65,6.969,8.685,6.17
		c6.484-2.227,11.776-8.96,10.794-15.994c-0.76-6.628-3.196-12.942-3.773-19.597c0.052-4.022,2.384-7.571,4.729-10.676
		c3.144,6.222,4.428,13.126,5.738,19.911c1.087,5.816,0.065,12.182,2.816,17.606c3.157,5.803,12.969,7.283,15.877,0.485
		c-4.598-8.161-9.406-16.663-10.283-26.16C903.893,912.38,906.474,907.533,909.775,903.656z"/>
	<path d="M182.255,918.484c6-4.257,15.195,1.061,14.554,8.371c0.052,6.759-8.069,11.344-13.912,8.096
		C176.53,931.977,176.124,921.93,182.255,918.484z"/>
	<path d="M447.022,928.676c2.332,0.76,4.663,1.506,6.995,2.279c-1.14,6.589-2.633,13.126-3.537,19.767
		c-2.712,1.716-5.436,3.406-8.2,5.043C442.699,946.57,445.096,937.636,447.022,928.676z"/>
	<path d="M1115.594,934.807c4.69-4.035,11.449-4.794,17.291-3.288c5.174,1.637,7.689,7.349,7.991,12.405
		c1.009,10.584-3.38,20.723-8.567,29.683c-6.445,10.65-14.816,20.147-24.627,27.823c-3.969,3.026-7.833,6.471-12.733,7.912
		c8.633-11.632,19.544-21.47,27.378-33.744c3.196-5.253,7.611-11.174,5.436-17.671c-0.852-3.668-4.663-5.502-8.161-5.41
		c-5.227-0.55-9.157,3.419-13.715,5.161C1106.923,949.478,1108.678,940.204,1115.594,934.807z"/>
	<path d="M994.974,955.792c12.209-5.659,25.072-9.982,36.665-16.938c-3.484,20.619-17.75,37.045-31.91,51.494
		c-5.672,5.24-10.466,11.908-17.815,14.933c-16.754,7.506-33.613,14.881-49.686,23.789c-13.741,6.903-26.369,15.968-37.294,26.788
		c-13.65,12.549-26.448,26.003-38.761,39.849c-11.121,12.091-21.326,25.059-33.495,36.142c-9.694,8.187-20.527,15.785-33.286,18.038
		c-14.776,3.93-30.836-0.694-42.456-10.27c-7.061-5.646-12.798-12.759-17.697-20.317c-5.947-9.418-8.842-20.304-10.925-31.137
		c3.943-2.24,7.899-4.454,11.96-6.471c1.821,13.113,10.401,26.16,23.461,30.208c14.069,3.589,29.002,0.157,41.774-6.131
		c14.409-8.017,27.679-18.431,37.831-31.504c10.571-12.589,21.103-25.217,31.714-37.779c10.611-11.239,21.929-21.915,34.53-30.928
		C928.612,984.152,962.068,970.057,994.974,955.792z"/>
	<path d="M751.153,963.167c2.567-5.528,4.978-11.436,9.825-15.405c0.367,2.214,0.301,4.428-0.17,6.628
		c-3.236,14.619-9.274,28.387-13.977,42.547c-1.808,5.07-3.131,10.44-6.393,14.842c-2.214-3.642-4.677-7.27-5.79-11.41
		C738.826,987.44,745.678,975.572,751.153,963.167z"/>
	<path d="M362.229,967.555c-1.14-5.711,0.734-11.619,4.401-16.047c1.323,5.41,1.952,11.043,4.336,16.165
		c2.41,6.628,6.209,13.479,4.546,20.776c-1.035,4.886-2.436,9.956-5.79,13.82c-2.777,3.655-8.436,3.812-12.078,1.441
		c-3.694-2.436-5.502-6.681-6.89-10.702c-1.703,6.327-5.017,13.519-11.999,15.248c-4.65,1.703-9.812-0.524-12.169-4.755
		c-4.428-7.807-2.554-17.173-2.974-25.727c-1.598-1.926-4.742-3.458-4.179-6.379c0.458-5.489,4.716-9.615,9.274-12.156
		c2.568,5.463,1.965,11.632,0.943,17.396c-1.218,5.895-0.236,12.615,3.733,17.305c4.467,3.602,10.322-0.721,12.772-4.755
		c4.546-7.192,0.039-15.588-0.956-23.147c-1.467-4.467,1.153-8.685,3.484-12.274c3.877,5.449,4.1,12.432,5.554,18.759
		c1.271,5.41-0.223,11.868,3.76,16.361c3.432,3.891,10.034,4.048,13.06-0.432C367.796,981.637,363.997,974.956,362.229,967.555z"/>
	<path d="M443.184,1019.586c4.244-5.449,11.017-8.292,16.636-12.169c3.419,6.484,7.048,12.864,11.213,18.916
		c-7.427,3.327-15.078,6.104-22.741,8.829C446.314,1030.066,444.323,1024.931,443.184,1019.586z"/>
	<path d="M687.044,1047.436c5.594-2.318,11.148-4.768,16.623-7.375c5.803,12.51,13.296,24.182,21.85,34.989
		c-11.934,7.231-24.588,13.152-37.229,19.007C689.245,1078.534,687.751,1062.959,687.044,1047.436z"/>
	<path d="M1103.818,1065.592c2.476-8.135,2.921-17.632,9.275-23.933c3.052-1.087,5.148,1.873,7.218,3.576
		c6.314,6.445,11.541,13.885,16.754,21.234c13.44,20.684,21.143,45.927,18.235,70.672c-3.314,18.195-10.453,37.203-25.269,49.097
		c-32.277,18.234-67.135,31.295-102.098,43.385c-86.876,27.653-177.472,43.936-268.632,47.08
		c-39.783,1.493-79.737,1.14-119.336-3.249c-30.194-3.812-60.507-9.209-88.88-20.527c-16.558-7.034-33.849-14.789-45.586-28.963
		c-6.445-7.362-11.174-16.047-14.947-25.02c-6.694,17.724-16.767,35.316-33.024,45.848c-12.602,8.03-28.858,9.589-42.94,4.873
		c-6.825-2.083-12.733-6.484-17.121-12.065c-8.777-10.99-12.235-25.033-13.977-38.722c-9.641,16.178-22.61,30.234-37.281,41.984
		c-13.951,11.292-31.046,19.675-49.267,20.082c-10.938,1.048-21.889-3.484-29.906-10.781
		c-13.231-12.405-19.112-30.129-27.561-45.717c-2.358-4.021-4.677-8.816-9.222-10.689c-9.785,1.768-16.898,9.406-23.566,16.191
		c-8.646,9.091-16.649,19.872-18.758,32.526c-0.419,8.724,2.122,17.278,4.65,25.544c1.52,6.039,6.484,10.244,10.99,14.161
		c16.715,13.073,35.526,23.448,55.437,30.771c3.38,1.336,6.943,2.659,9.615,5.24c2.829,3.327,2.764,8.056,2.017,12.143
		c-1.69,9.222-3.419,18.418-5.07,27.64c-0.498,1.886-0.563,4.336-2.633,5.292c-3.301,0.223-6.222-1.755-9.143-3
		c-19.479-10.899-42.194-14.527-64.266-14.75c-14.501-0.341-28.282,7.152-37.36,18.208c-8.004,8.423-12.379,19.636-14.2,30.967
		c-2.03,17.16,1.742,34.19,4.663,51.009c6.026,29.828,13.453,59.341,20.344,88.959c4.113,16.361,6.419,33.089,8.619,49.791
		c3.039,23.671,2.882,48.285-4.519,71.17c-3.406-6.615-2.96-14.318-3.956-21.496c-0.511-14.2-1.952-28.334-4.153-42.364
		c-0.825-10.728-4.781-20.802-7.139-31.216c-8.174-32.5-16.938-64.908-22.649-97.971c-2.437-15.588-5.593-31.203-5.07-47.066
		c-0.576-18.772,2.148-37.556,7.034-55.647c5.633-17.946,13.623-35.657,26.631-49.503c5.476-5.332,11.999-9.903,19.558-11.632
		c-1.782-4.886-4.139-9.602-5.187-14.724c-1.205-9.012-0.904-18.13-0.21-27.168c1.795-34.871,15.051-69.441,38.499-95.509
		c5.122-6,11.698-10.624,18.667-14.239c6.432-3.144,15.588-3.511,19.754,3.367c9.222,13.663,13.872,29.906,23.239,43.516
		c6.864,9.144,16.859,17.2,28.78,17.527c22.806,1.218,45.167-8.567,62.196-23.304c13.06-12.746,24.824-26.736,38.028-39.338
		c1.48-1.349,3.419-3.104,5.292-1.244c1.192,6.301-2.685,11.947-3.851,17.959c-3.314,13.872,5.567,28.649,18.313,34.203
		c12.707,5.423,27.928,3.891,39.705-3.157c19.649-11.436,31.661-31.648,41.761-51.311c1.624-3.196,6.471-7.152,9.576-3.524
		c1.899,6.943-2.869,13.833-1.415,20.881c2.135,15.339,14.37,26.867,27.142,34.334c19.977,12.025,43.359,15.824,65.969,19.807
		c16.453,3.17,33.142,4.742,49.752,6.694c40.831,4.572,82.016,5.869,123.057,3.982c36.548-1.546,73.069-4.401,109.224-10.073
		c70.764-9.785,140.532-27.47,206.92-53.931c12.431-4.637,24.588-10.126,36.233-16.466c2.567-2.004,7.833-3.642,5.908-7.833
		c-2.633-8.554-8.056-15.837-12.916-23.225c-5.698-8.58-12.903-16.034-18.575-24.601
		C1098.067,1083.42,1101.919,1073.897,1103.818,1065.592z"/>
	<path d="M1063.537,1054.222c4.441-2.934,9.969-0.249,13.217,3.209c3.013,3.445,5.751,7.532,6.34,12.169
		c-0.262,3.943-1.533,7.794-3.249,11.331c-0.589,1.546-3.091,3.327-4.336,1.454c-3.851-3.196-7.034-10.165-13.021-8.2
		c-4.834,3.524-6.51,9.615-8.305,15.025c-4.48,13.912-5.934,28.531-9.851,42.587c-1.703,5.567-3.799,11.593-8.829,15.051
		c-1.808-4.152-1.48-8.777-2.698-13.073c-2.895-11.462-7.532-22.361-12.327-33.116c-1.637-3.039-3.157-6.406-5.987-8.489
		c-2.934-0.445-4.703,3.419-7.663,2.829c-5.187-0.904-9.327-4.65-12.824-8.357c-2.214-2.201-3.55-5.607-2.07-8.567
		c2.633-5.816,6.301-11.121,10.231-16.125c9.314,0.157,16.925,6.746,21.929,14.082c8.764,12.497,12.117,27.705,15.313,42.364
		c3.288-14.999,6.026-30.155,10.558-44.84C1052.664,1066.129,1056.856,1058.728,1063.537,1054.222z"/>
	<path d="M480.557,1085.582c12.707-6.694,25.033-14.239,36.299-23.186c25.164,10.545,53.197,11.803,80.051,9.157
		c16.466-1.454,32.696-4.768,48.586-9.222c0.498,15.693,1.952,31.334,2.83,47.001c-27.129,8.371-55.673,12.89-84.099,11.986
		c-11.121-1.009-22.269-2.502-33.076-5.423C512.166,1110.13,494.154,1100.175,480.557,1085.582z"/>
	<path d="M187.049,1108.951c4.847-9.248,8.528-19.191,14.278-27.902c0.642-0.066,1.913-0.183,2.554-0.249
		c5.109,2.358,9.654,5.777,14.344,8.855c7.899,5.528,16.387,10.362,23.278,17.187c1.795,1.467,0.93,4.087,0.341,5.96
		c-3.668,11.161-9.956,21.195-16.178,31.059c-1.349,2.882-4.637,0.943-6.314-0.524c-10.781-8.567-22.584-15.693-33.928-23.474
		c-4.794,9.825-9.012,20.121-15.615,28.911c-5.593-3.118-10.545-7.218-15.798-10.859c-8.148-6.013-16.885-11.174-25.125-17.056
		c2.646-7.624,6.799-14.58,10.152-21.876c2.607-4.847,4.401-10.165,7.637-14.632c1.795-2.371,4.454-0.013,6.353,0.891
		C164.806,1092.485,176.399,1100.109,187.049,1108.951z"/>
	<path d="M847.146,1131.352c4.821-4.113,11.79-4.938,17.75-3.209c4.991,1.795,7.309,7.441,7.571,12.392
		c1.061,12.3-4.716,23.88-11.279,33.875c-8.999,12.89-20.488,24.627-34.622,31.74c3.131-5.764,8.24-9.995,12.392-14.973
		c7.113-8.279,14.239-16.715,19.283-26.461c2.201-3.969,2.45-9.288-0.288-13.047c-2.004-2.397-5.41-2.803-8.318-2.646
		c-4.559,0.236-8.004,3.602-12.091,5.201C838.435,1145.997,840.308,1136.775,847.146,1131.352z"/>
	<path d="M313.25,1149.075c6-4.323,15.261,0.996,14.619,8.344c0.052,6.799-8.174,11.37-14.003,8.043
		C307.604,1162.437,307.198,1152.533,313.25,1149.075z"/>
	<path d="M125.717,1183.789c1.402-2.856,3.144-5.541,5.214-7.938c-4.415,19.296-12.366,37.818-14.763,57.612
		c-0.603,6.89-0.432,14.2,2.607,20.566c1.952,4.074,7.414,6.602,11.488,4.061c6.34-4.244,8.829-11.803,13.532-17.448
		c-0.891,9.458-3.222,18.863-7.113,27.561c-2.672,5.541-7.192,11.541-13.872,11.947c-5.083,0.668-10.427-1.926-12.824-6.484
		c-4.323-7.886-4.048-17.187-3.786-25.885c0.865-12.837,3.196-25.623,7.585-37.727
		C116.836,1200.897,121.447,1192.395,125.717,1183.789z"/>
	<path d="M719.23,1180.291c6.563-4.349,15.916,2.45,14.121,10.021c-1.048,7.179-10.951,10.218-15.942,5.083
		C712.798,1191.308,713.872,1183.199,719.23,1180.291z"/>
	<path d="M1189.201,1187.732c6.052-3.157,14.056,2.214,13.466,8.999c0.039,7.139-8.908,11.645-14.711,7.611
		C1181.839,1200.713,1182.599,1190.43,1189.201,1187.732z"/>
	<path d="M1084.247,1246.536c0.917-2.371,2.568-4.27,4.598-5.751c11.907,6.471,23.094,14.2,33.915,22.348
		c2.214,1.637,4.166,3.615,6.065,5.633c-0.956,5.122-2.476,10.191-5.07,14.75c-4.31,7.598-7.729,15.811-13.388,22.557
		c-1.978,0.603-3.419-1.533-5.017-2.279c-10.584-7.82-21.378-15.339-32.487-22.387c-1.428-1.14-4.48-2.279-3.118-4.611
		C1074.161,1266.525,1079.571,1256.701,1084.247,1246.536z"/>
	<path d="M431.211,1268.32c5.685-2.384,12.445-0.157,16.06,4.742c8.842,9.026,10.886,22.675,7.768,34.596
		c-1.69,6.144-3.576,13.794-9.982,16.584c-5.017,1.009-9.785-1.454-14.121-3.615c-7.978-4.585-15.798-9.772-21.719-16.925
		c-3.694,10.204-7.532,20.632-14.344,29.238c-11.082,13.794-24.994,25.112-40.058,34.281c-13.139,7.257-25.963,15.431-40.268,20.226
		c-16.925,3.314-33.574,7.847-50.341,11.855c-9.733,1.965-19.44,4.86-29.448,4.781c7.31-4.899,15.667-7.821,23.763-11.122
		c26.762-11.37,53.132-23.592,79.448-35.958c17.606-9.772,35.041-20.265,49.988-33.888c11.593-10.519,14.593-27.116,25.256-38.355
		c0.838,0.262,2.515,0.773,3.353,1.035C419.867,1278.917,424.124,1271.818,431.211,1268.32 M423.836,1293.026
		c6.772,5.567,14.632,9.812,22.859,12.837c0.406-3.576-0.327-7.192-2.581-10.034c-2.672-3.655-5.934-8.292-11.043-7.965
		C429.246,1287.812,426.325,1290.458,423.836,1293.026z"/>
	<path d="M601.779,1301.488c1.258-5.187,4.886-9.379,8.122-13.479c7.283,8.999,4.611,21.457,1.244,31.504
		c-2.214,5.528-4.074,12.89-10.715,14.488c-7.611,1.821-15.104-1.755-21.994-4.559c-7.388,6.89-15.877,13.938-26.291,15.091
		c-9.026,1.153-17.016-4.781-25.963-4.231c-10.506,0.812-20.592,4.664-29.513,10.178c-14.03,8.253-24.496,20.985-36.259,31.976
		c-8.698,7.912-16.099,17.593-26.736,23.042c-9.078,4.637-19.047,7.283-29.002,9.248c5.24-5.109,12.052-8.082,18.103-12.052
		c9.248-6.393,18.85-12.497,26.671-20.671c12.995-13.204,24.038-28.19,37.438-41.015c11.79-10.82,25.505-20.985,41.918-22.728
		c11.816-2.672,22.649,6.877,34.412,3.235c7.637-1.795,10.833-9.523,14.881-15.353c2.646-3.589,4.559-8.881,9.681-9.248
		c0.118,4.742-1.546,9.183-2.738,13.702c5.305,3.878,12.877,2.633,19.165,2.829C603.771,1309.374,602.251,1305.523,601.779,1301.488
		z"/>
	<path d="M763.794,1300.597c3.249-3.471,8.502-5.463,13.099-3.681c6.445,3.629,11.685,10.349,12.798,17.711
		c-1.153,5.292-1.598,12.3-6.746,15.3c-4.991-2.725-7.179-9.287-13.113-10.597c-4.952-0.524-7.296,4.755-9.17,8.41
		c-6.576,14.96-8.449,31.36-11.881,47.198c-2.319,9.078-4.113,19.597-12.065,25.609c-2.004-3.458-1.598-7.558-2.345-11.331
		c-2.515-12.445-7.886-24.025-12.667-35.709c-2.188-5.122-4.808-10.1-8.475-14.305c-3.222,1.362-6.157,4.637-9.943,3.655
		c-6.17-1.375-10.532-6.314-14.855-10.532c-9.379,21.536-26.317,38.932-45.73,51.756c-12.916,9.156-26.906,16.833-41.722,22.426
		c-14.554,4.965-28.531,11.672-43.477,15.418c0.432-2.659,2.685-4.153,4.821-5.41c30.155-17.619,59.904-35.906,88.88-55.385
		c12.13-8.069,23.121-17.881,32.513-29.002c5.423-8.436,9.72-17.553,15.339-25.885c9.392-0.118,17.449,5.79,23.016,12.877
		c10.493,14.724,15.497,32.408,18.693,49.988c3.668-13.741,5.462-27.954,9.68-41.565
		C752.673,1317.692,756.655,1307.907,763.794,1300.597z"/>
	<path d="M305.049,1299.313c6.222-2.148,13.27,3.55,12.287,10.1c-0.432,7.126-9.877,11.161-15.287,6.458
		C295.998,1311.679,297.923,1301.108,305.049,1299.313z"/>
	<path d="M1009.305,1301.265c2.345-0.891,4.834-1.284,7.323-1.624c-2.554,7.257-4.663,17.2-13.348,19.204
		c-27.417,10.571-55.083,20.527-82.409,31.36c-37.242,14.436-74.274,29.408-111.398,44.132c1.834-7.558,4.899-14.711,8.161-21.745
		C881.572,1348.934,945.34,1324.844,1009.305,1301.265z"/>
</g>
</svg>
